<svg id="Group_2104" data-name="Group 2104" xmlns="http://www.w3.org/2000/svg" xmlns:xlink="http://www.w3.org/1999/xlink" width="1366" height="768" viewBox="0 0 1366 768">
  <defs>
    <clipPath id="clip-path">
      <rect id="Rectangle_2230" data-name="Rectangle 2230" width="1366" height="768" fill="#fff" stroke="#707070" stroke-width="1"/>
    </clipPath>
  </defs>
  <rect id="Rectangle_2223" data-name="Rectangle 2223" width="1366" height="768" fill="#fae288"/>
  <g id="Mask_Group_1" data-name="Mask Group 1" clip-path="url(#clip-path)">
    <g id="Group_2103" data-name="Group 2103">
      <path id="Path_4603" data-name="Path 4603" d="M253.2,54.165c-18.824,83.567,72.468,142.151,158.427,175.8S593.308,262,684.855,250.138c49.033-6.355,108.49-11.5,138.221,28,31.412,41.739,5.754,103.025,21.985,152.678,14.1,43.123,60.442,70.959,105.808,70.7s88.234-24.943,118.1-59.088,48.1-76.988,60.936-120.5c17.5-59.307,25.838-122.185,16.2-183.264s-38.371-120.31-85.8-159.98c-56.352-47.129-132.509-62.6-205.745-68.368C645.686-106.152,432.012-55.039,253.2,54.165" transform="translate(342.077 -56.375)" fill="#fff" opacity="0.2"/>
      <path id="Path_4604" data-name="Path 4604" d="M-369.9,468.5c9.152,78.2,72.592,142.323,145.9,171.025s154.954,27.318,233.031,17.2c41.818-5.419,92.528-9.81,117.884,23.883,26.79,35.6,4.907,87.867,18.751,130.214,12.022,36.777,51.549,60.519,90.24,60.294s75.252-21.274,100.728-50.4,41.021-65.66,51.971-102.771c14.924-50.581,22.036-104.207,13.819-156.3S369.7,459.045,329.244,425.212c-48.061-40.2-113.012-53.385-175.473-58.309-178.146-14.043-360.382,29.55-512.888,122.687" transform="translate(19.719 177.433)" fill="#fff" opacity="0.2"/>
    </g>
  </g>
</svg>
